<svg width="48" height="49" viewBox="0 0 48 49" fill="none" xmlns="http://www.w3.org/2000/svg">
<path fill-rule="evenodd" clip-rule="evenodd" d="M6.98175 24.6969C7.08639 15.3328 14.7256 7.85325 24.0872 7.90555L24.0881 7.90555C31.6232 7.95787 37.9006 12.8776 40.097 19.6231C40.2167 19.9907 40.0158 20.3858 39.6482 20.5055C39.2806 20.6252 38.8855 20.4242 38.7658 20.0566C36.7491 13.8627 30.9889 9.35371 24.0789 9.30552C15.4849 9.25777 8.47871 16.121 8.38169 24.7106C8.33473 33.3032 15.1984 40.3082 23.7887 40.4049C30.7497 40.4522 36.7001 35.9398 38.7147 29.6568C38.8328 29.2887 39.2269 29.0859 39.595 29.204C39.9632 29.322 40.1659 29.7161 40.0479 30.0843C37.8494 36.9409 31.3614 41.8572 23.7774 41.8049L23.7744 41.8048C14.4096 41.7002 6.92942 34.0618 6.98172 24.7008L6.98175 24.6969Z" fill="currentColor"/>
<path d="M24.3158 30.499C23.2999 30.499 22.4363 30.299 21.7251 29.999C21.014 29.649 20.4552 29.199 19.998 28.649C19.5408 28.099 19.236 27.499 19.0328 26.849C18.8296 26.199 18.728 25.549 18.728 24.949V24.599C18.728 23.949 18.8296 23.299 19.0328 22.599C19.236 21.949 19.5408 21.349 19.998 20.799C20.4552 20.249 21.014 19.849 21.7251 19.499C22.4363 19.149 23.2491 18.999 24.265 18.999C25.281 18.999 26.0938 19.149 26.8049 19.499C27.5161 19.849 28.0749 20.299 28.4813 20.949C28.7353 21.299 28.9385 21.699 29.0401 22.149C29.1925 22.599 28.8369 23.099 28.3289 23.099C27.9733 23.099 27.7193 22.899 27.6177 22.549C27.5161 22.149 27.3637 21.849 27.1097 21.549C26.8049 21.149 26.3985 20.849 25.8906 20.649C25.3826 20.449 24.8238 20.349 24.2142 20.349C23.5539 20.349 22.9951 20.449 22.4871 20.699C21.9791 20.949 21.5727 21.249 21.2679 21.649C20.9631 22.049 20.7092 22.499 20.506 23.049C20.3536 23.599 20.252 24.149 20.252 24.749C20.252 25.349 20.3536 25.899 20.506 26.449C20.6584 26.999 20.9123 27.449 21.2679 27.849C21.6235 28.249 22.0299 28.599 22.5379 28.799C23.0459 29.049 23.6554 29.149 24.3158 29.149C25.281 29.149 26.0938 28.899 26.7034 28.449C27.2114 28.099 27.5669 27.599 27.7701 26.949C27.8717 26.649 28.1257 26.399 28.4813 26.399C28.9893 26.399 29.3448 26.899 29.1924 27.399C29.04 27.799 28.8877 28.149 28.6337 28.449C28.2273 29.049 27.6685 29.549 26.9065 29.949C26.2461 30.349 25.3826 30.499 24.3158 30.499Z" fill="currentColor"/>
<path fill-rule="evenodd" clip-rule="evenodd" d="M23.9998 16.1401C24.3864 16.1401 24.6998 16.4535 24.6998 16.8401V19.3401C24.6998 19.7267 24.3864 20.0401 23.9998 20.0401C23.6132 20.0401 23.2998 19.7267 23.2998 19.3401V16.8401C23.2998 16.4535 23.6132 16.1401 23.9998 16.1401Z" fill="currentColor"/>
<path fill-rule="evenodd" clip-rule="evenodd" d="M23.9998 29.6968C24.3864 29.6968 24.6998 30.0102 24.6998 30.3968V32.8968C24.6998 33.2834 24.3864 33.5968 23.9998 33.5968C23.6132 33.5968 23.2998 33.2834 23.2998 32.8968V30.3968C23.2998 30.0102 23.6132 29.6968 23.9998 29.6968Z" fill="currentColor"/>
<path d="M39.5439 30.7061C42.7767 30.7061 45.3975 28.0853 45.3975 24.8525C45.3975 21.6197 42.7767 18.999 39.5439 18.999C36.3111 18.999 33.6904 21.6197 33.6904 24.8525C33.6904 28.0853 36.3111 30.7061 39.5439 30.7061Z" fill="#373765"/>
<path fill-rule="evenodd" clip-rule="evenodd" d="M39.5437 19.6993C36.6975 19.6993 34.3902 22.0066 34.3902 24.8528C34.3902 27.699 36.6975 30.0063 39.5437 30.0063C42.39 30.0063 44.6973 27.699 44.6973 24.8528C44.6973 22.0066 42.39 19.6993 39.5437 19.6993ZM32.9902 24.8528C32.9902 21.2334 35.9243 18.2993 39.5437 18.2993C43.1632 18.2993 46.0973 21.2334 46.0973 24.8528C46.0973 28.4722 43.1632 31.4063 39.5437 31.4063C35.9243 31.4063 32.9902 28.4722 32.9902 24.8528Z" fill="currentColor"/>
<path fill-rule="evenodd" clip-rule="evenodd" d="M39.5696 21.0259C39.9562 21.0259 40.2696 21.3393 40.2696 21.7259V28.0042C40.2696 28.3908 39.9562 28.7042 39.5696 28.7042C39.183 28.7042 38.8696 28.3908 38.8696 28.0042V21.7259C38.8696 21.3393 39.183 21.0259 39.5696 21.0259Z" fill="currentColor"/>
<path fill-rule="evenodd" clip-rule="evenodd" d="M35.7173 24.8782C35.7173 24.4916 36.0307 24.1782 36.4173 24.1782H42.6956C43.0822 24.1782 43.3956 24.4916 43.3956 24.8782C43.3956 25.2648 43.0822 25.5782 42.6956 25.5782H36.4173C36.0307 25.5782 35.7173 25.2648 35.7173 24.8782Z" fill="currentColor"/>
</svg>
