<svg width="36" height="36" viewBox="0 0 36 36" fill="none" xmlns="http://www.w3.org/2000/svg">
<path fill-rule="evenodd" clip-rule="evenodd" d="M18.2002 2.04186C9.30302 2.04186 2.09606 9.24883 2.09606 18.146C2.09606 27.0432 9.30302 34.2501 18.2002 34.2501C27.0974 34.2501 34.3043 27.0432 34.3043 18.146C34.3043 9.24883 27.0974 2.04186 18.2002 2.04186ZM0.700195 18.146C0.700195 8.47791 8.53211 0.645996 18.2002 0.645996C27.8683 0.645996 35.7002 8.47791 35.7002 18.146C35.7002 27.8141 27.8683 35.646 18.2002 35.646C8.53211 35.646 0.700195 27.8141 0.700195 18.146Z" fill="white"/>
<path fill-rule="evenodd" clip-rule="evenodd" d="M20.157 10.1964C20.4393 10.4743 20.4429 10.9284 20.165 11.2107L13.5694 17.9107C13.4287 18.0536 13.4287 18.2386 13.5694 18.3814L20.165 25.0814C20.4429 25.3637 20.4393 25.8179 20.157 26.0958C19.8747 26.3737 19.4206 26.3701 19.1426 26.0878L12.547 19.3879C11.8567 18.6866 11.8567 17.6055 12.547 16.9043L19.1426 10.2043C19.4206 9.92201 19.8747 9.91845 20.157 10.1964Z" fill="white"/>
</svg>
