<svg width="25" height="24" viewBox="0 0 25 24" fill="none" xmlns="http://www.w3.org/2000/svg">
<path fill-rule="evenodd" clip-rule="evenodd" d="M18.2504 4.62175C17.8968 4.26508 17.3171 4.26508 16.9635 4.62175L16.9615 4.62372L5.81159 15.7455L5.15176 17.7226L7.22713 17.0511L18.2504 5.93213C18.6064 5.57307 18.6064 4.98081 18.2504 4.62175ZM16.2544 3.91664C16.9993 3.16643 18.2161 3.16678 18.9605 3.9177C19.703 4.66658 19.703 5.8873 18.9605 6.63618L7.76618 17.9277L4.98875 18.8263L4.97277 18.8304C4.39907 18.975 3.90192 18.4577 4.04067 17.8979L4.04543 17.8787L4.93791 15.2045L16.2533 3.9177C16.2537 3.91735 16.254 3.917 16.2544 3.91664Z" fill="#171753"/>
<path fill-rule="evenodd" clip-rule="evenodd" d="M6.10118 15.3963C6.0097 15.1414 5.73082 15.005 5.47253 15.0911C5.21056 15.1784 5.06898 15.4616 5.1563 15.7235L5.63064 15.5654C5.1563 15.7235 5.15641 15.7239 5.15652 15.7242L5.15675 15.7249L5.15722 15.7263L5.15825 15.7293L5.16065 15.7361L5.16689 15.7529C5.17172 15.7655 5.17794 15.7809 5.18578 15.799C5.20147 15.8351 5.22363 15.8816 5.2542 15.9377C5.31538 16.0498 5.40984 16.1992 5.55271 16.3778C5.83861 16.7352 6.31582 17.2065 7.10329 17.7315C7.33306 17.8846 7.64349 17.8225 7.79667 17.5928C7.94985 17.363 7.88776 17.0526 7.65799 16.8994C6.94547 16.4244 6.54767 16.0207 6.33358 15.7531C6.22645 15.6192 6.16465 15.5185 6.13209 15.4588C6.11578 15.4289 6.10669 15.4091 6.10285 15.4002C6.1021 15.3985 6.10155 15.3972 6.10118 15.3963Z" fill="#171753"/>
<path fill-rule="evenodd" clip-rule="evenodd" d="M15.2527 4.99502C15.3783 4.74909 15.6795 4.65153 15.9254 4.77711L15.698 5.22241C15.9254 4.77711 15.9253 4.77703 15.9254 4.77711L15.9268 4.77779L15.9285 4.7787L15.9332 4.78116L15.9475 4.78874C15.9591 4.79498 15.9749 4.8036 15.9944 4.81466C16.0335 4.83676 16.0877 4.86863 16.1542 4.91069C16.2872 4.99471 16.4701 5.11984 16.6794 5.2894C17.0974 5.62783 17.6269 6.1481 18.074 6.8774C18.2183 7.11283 18.1445 7.42068 17.909 7.565C17.6736 7.70932 17.3658 7.63546 17.2214 7.40003C16.8469 6.78908 16.4016 6.3512 16.0501 6.06654C15.8748 5.92455 15.7243 5.8219 15.62 5.75604C15.568 5.72314 15.5277 5.69954 15.5018 5.68491C15.4889 5.67759 15.4796 5.67253 15.4743 5.66968L15.4693 5.66705C15.469 5.66689 15.4691 5.66694 15.4693 5.66705L15.4704 5.66758C15.2246 5.54191 15.1272 5.24087 15.2527 4.99502Z" fill="#171753"/>
<path fill-rule="evenodd" clip-rule="evenodd" d="M4.01736 20.1458C4.01736 19.8696 4.24122 19.6458 4.51736 19.6458H19.5174C19.7935 19.6458 20.0174 19.8696 20.0174 20.1458C20.0174 20.4219 19.7935 20.6458 19.5174 20.6458H4.51736C4.24122 20.6458 4.01736 20.4219 4.01736 20.1458Z" fill="#171753"/>
</svg>
