<svg width="25" height="25" viewBox="0 0 25 25" fill="none" xmlns="http://www.w3.org/2000/svg">
<path fill-rule="evenodd" clip-rule="evenodd" d="M19.3631 5.39401C19.5583 5.58927 19.5583 5.90585 19.3631 6.10111L5.36307 20.1011C5.16781 20.2964 4.85123 20.2964 4.65597 20.1011C4.46071 19.9058 4.46071 19.5893 4.65597 19.394L18.656 5.39401C18.8512 5.19874 19.1678 5.19874 19.3631 5.39401Z" fill="#171753"/>
<path fill-rule="evenodd" clip-rule="evenodd" d="M11.8841 6.99756C6.51787 6.99756 3.7638 10.8831 2.86071 12.4313L2.85833 12.4353C2.73007 12.6506 2.72146 12.9378 2.86329 13.1945C3.76256 14.7343 6.54024 18.4976 11.8841 18.4976H12.1349C17.5084 18.4976 20.2613 14.7279 21.1583 13.1901L21.1607 13.186C21.2892 12.9704 21.2976 12.6826 21.155 12.4255C20.2527 10.8552 17.4991 6.99756 12.1349 6.99756H11.8841ZM1.998 11.9256C2.95207 10.2906 5.96645 5.99756 11.8841 5.99756H12.1349C18.0537 5.99756 21.0685 10.2666 22.0238 11.9304L22.0268 11.9355L22.0267 11.9355C22.3338 12.4852 22.3423 13.1548 22.021 13.6958C21.0609 15.3411 18.0454 19.4976 12.1349 19.4976H11.8841C5.99711 19.4976 2.95633 15.3387 1.99692 13.6939L1.99224 13.6859L1.99231 13.6859C1.68521 13.1362 1.67674 12.4665 1.998 11.9256Z" fill="#171753"/>
<path fill-rule="evenodd" clip-rule="evenodd" d="M12.0095 9.49756C10.2146 9.49756 8.75952 10.9526 8.75952 12.7476C8.75952 14.5425 10.2146 15.9976 12.0095 15.9976C13.8044 15.9976 15.2595 14.5425 15.2595 12.7476C15.2595 10.9526 13.8044 9.49756 12.0095 9.49756ZM7.75952 12.7476C7.75952 10.4003 9.66231 8.49756 12.0095 8.49756C14.3567 8.49756 16.2595 10.4003 16.2595 12.7476C16.2595 15.0948 14.3567 16.9976 12.0095 16.9976C9.66231 16.9976 7.75952 15.0948 7.75952 12.7476Z" fill="#171753"/>
</svg>
