<svg viewBox="0 0 19 21" fill="none" xmlns="http://www.w3.org/2000/svg">
<path fill-rule="evenodd" clip-rule="evenodd" d="M13.25 2C13.3881 2 13.5 2.16281 13.5 2.36364V3.63636C13.5 3.83719 13.3881 4 13.25 4C13.1119 4 13 3.83719 13 3.63636V2.36364C13 2.16281 13.1119 2 13.25 2Z" fill="white"/>
<path fill-rule="evenodd" clip-rule="evenodd" d="M18.2112 13.0703C17.9581 12.6506 17.3517 12.4997 16.8943 12.7474L13.0368 14.8361C12.8779 14.9222 12.6754 14.8699 12.5846 14.7193C12.4938 14.5686 12.549 14.3768 12.7079 14.2907L16.5654 12.202C17.3261 11.7901 18.3438 12.024 18.7868 12.7586C19.2215 13.4795 18.9746 14.4439 18.1994 14.8636L18.1989 14.8639L12.5403 17.9161C12.2361 18.0762 11.8912 18.1755 11.5092 18.1755H7.24573C6.9847 18.1755 6.7312 18.2433 6.5305 18.3701C6.52612 18.3728 6.52168 18.3755 6.51717 18.3781L5.50205 18.9552C5.34508 19.0444 5.14147 18.9962 5.04729 18.8475C4.9531 18.6987 5.004 18.5058 5.16098 18.4165L6.16969 17.843C6.48964 17.643 6.8714 17.5473 7.24573 17.5473H11.5092C11.7648 17.5473 11.9995 17.4819 12.2169 17.3677C12.2174 17.3674 12.2179 17.3672 12.2183 17.3669L17.8705 14.3182C17.8705 14.3182 17.8705 14.3182 17.8705 14.3182C18.3133 14.0783 18.4726 13.5037 18.2112 13.0703Z" fill="white"/>
<path fill-rule="evenodd" clip-rule="evenodd" d="M5.42769 12.2886C5.75852 12.0908 6.17958 12 6.55596 12H11.3353C12.259 12 13 12.6677 13 13.5C13 14.3323 12.259 15 11.3353 15H7.94255C7.75634 15 7.60538 14.864 7.60538 14.6962C7.60538 14.5284 7.75634 14.3924 7.94255 14.3924H11.3353C11.8866 14.3924 12.3257 13.9968 12.3257 13.5C12.3257 13.0032 11.8866 12.6076 11.3353 12.6076H6.55596C6.28438 12.6076 5.99872 12.6758 5.79893 12.7958L5.79358 12.799L2.51888 14.6863C2.36202 14.7767 2.15351 14.7354 2.05318 14.5941C1.95284 14.4527 1.99866 14.2649 2.15553 14.1745L5.42769 12.2886Z" fill="white"/>
<path fill-rule="evenodd" clip-rule="evenodd" d="M1.72821 14.049C1.89387 13.953 2.10859 14.0023 2.21175 14.1601L5.94502 19.8717C6.04806 20.0294 6.00218 20.2376 5.84163 20.341L4.90832 20.9423C4.74493 21.0475 4.52418 21.0049 4.41526 20.847C4.30633 20.6891 4.35048 20.4758 4.51387 20.3706L5.15857 19.9553L1.79608 14.811L0.538533 15.54C0.370151 15.6376 0.151751 15.5849 0.0507221 15.4222C-0.0503068 15.2595 0.00429331 15.0485 0.172675 14.9508L1.72821 14.049Z" fill="white"/>
<path fill-rule="evenodd" clip-rule="evenodd" d="M10.25 0C10.3881 0 10.5 0.162806 10.5 0.363636V1.63636C10.5 1.83719 10.3881 2 10.25 2C10.1119 2 10 1.83719 10 1.63636V0.363636C10 0.162806 10.1119 0 10.25 0Z" fill="white"/>
<path fill-rule="evenodd" clip-rule="evenodd" d="M7.25 2C7.38807 2 7.5 2.16281 7.5 2.36364V3.63636C7.5 3.83719 7.38807 4 7.25 4C7.11193 4 7 3.83719 7 3.63636V2.36364C7 2.16281 7.11193 2 7.25 2Z" fill="white"/>
<path fill-rule="evenodd" clip-rule="evenodd" d="M10 5.68711C8.14215 5.68711 6.64646 7.27685 6.64646 9.25152C6.64646 10.0768 6.90526 10.8447 7.34264 11.4464C7.45179 11.5965 7.42577 11.8123 7.28451 11.9283C7.14325 12.0443 6.94025 12.0166 6.8311 11.8665C6.30687 11.1454 6 10.2299 6 9.25152C6 6.89737 7.78512 5 10 5C12.2149 5 14 6.89737 14 9.25152C14 10.2304 13.6927 11.1496 13.135 11.874C13.022 12.0208 12.8183 12.0425 12.6802 11.9223C12.542 11.8022 12.5216 11.5857 12.6347 11.4389C13.0952 10.8406 13.3535 10.0763 13.3535 9.25152C13.3535 7.27685 11.8578 5.68711 10 5.68711Z" fill="white"/>
</svg>
