<svg width="96" height="96" viewBox="0 0 96 96" fill="none" xmlns="http://www.w3.org/2000/svg">
<path d="M30.6441 34.4335C33.777 29.8756 38.634 26.5103 44.5206 25.3698C56.0212 23.1416 67.2355 30.419 69.9393 41.6717C70.0615 42.1803 70.557 42.5172 71.0704 42.4177C71.5839 42.3183 71.9206 41.8197 71.8002 41.3108C68.8956 29.0347 56.6867 21.0891 44.1592 23.5163C37.6495 24.7775 32.2918 28.5491 28.8953 33.6413L28.052 29.3158C27.9522 28.804 27.4551 28.4697 26.9417 28.5692C26.4282 28.6686 26.0929 29.1642 26.1927 29.676L27.2948 35.3288C27.3762 35.7462 27.6016 36.1382 27.9824 36.3943C28.3632 36.6503 28.8123 36.7119 29.231 36.6308L34.8324 35.5456C35.3458 35.4461 35.6811 34.9505 35.5814 34.4387C35.4816 33.9268 34.9844 33.5926 34.471 33.692L30.6441 34.4335Z" fill="currentColor"/>
<path d="M66.3559 60.5665C63.223 65.1244 58.366 68.4897 52.4794 69.6302C40.9788 71.8584 29.7645 64.581 27.0607 53.3283C26.9385 52.8197 26.443 52.4828 25.9296 52.5823C25.4161 52.6817 25.0794 53.1803 25.1998 53.6892C28.1044 65.9653 40.3133 73.9109 52.8408 71.4837C59.3505 70.2225 64.7082 66.4509 68.1047 61.3587L68.948 65.6842C69.0478 66.196 69.5449 66.5303 70.0583 66.4308C70.5718 66.3314 70.9071 65.8358 70.8073 65.324L69.7052 59.6712C69.6238 59.2538 69.3984 58.8618 69.0176 58.6057C68.6368 58.3497 68.1877 58.2881 67.769 58.3692L62.1676 59.4544C61.6542 59.5539 61.3189 60.0495 61.4186 60.5613C61.5184 61.0732 62.0156 61.4074 62.529 61.308L66.3559 60.5665Z" fill="currentColor"/>
</svg>
