<svg width="48" height="50" viewBox="0 0 48 50" fill="none" xmlns="http://www.w3.org/2000/svg">
<path fill-rule="evenodd" clip-rule="evenodd" d="M8.93051 13.0429C7.9464 13.0429 7.17495 13.8135 7.17495 14.8157V35.1842C7.17495 36.1864 7.9464 36.957 8.93051 36.957H39.0694C40.0049 36.957 40.825 36.1374 40.825 35.1842V14.8157C40.825 13.8135 40.0535 13.0429 39.0694 13.0429H8.93051ZM5.82495 14.8157C5.82495 13.0759 7.1924 11.6921 8.93051 11.6921H39.0694C40.8075 11.6921 42.1749 13.0759 42.1749 14.8157V35.1842C42.1749 36.875 40.7589 38.3078 39.0694 38.3078H8.93051C7.1924 38.3078 5.82495 36.924 5.82495 35.1842V14.8157Z" fill="#373765"/>
<path d="M10.0546 16.2068C10.4002 16.2068 10.6803 15.9268 10.6803 15.5814C10.6803 15.236 10.4002 14.9561 10.0546 14.9561C9.70908 14.9561 9.42896 15.236 9.42896 15.5814C9.42896 15.9268 9.70908 16.2068 10.0546 16.2068Z" fill="#373765"/>
<path fill-rule="evenodd" clip-rule="evenodd" d="M10.0546 15.6316C10.0811 15.6316 10.1039 15.6099 10.1039 15.5815C10.1039 15.5532 10.0811 15.5315 10.0546 15.5315C10.0281 15.5315 10.0053 15.5532 10.0053 15.5815C10.0053 15.6099 10.0281 15.6316 10.0546 15.6316ZM8.75391 15.5815C8.75391 14.8624 9.33694 14.2808 10.0546 14.2808C10.7722 14.2808 11.3553 14.8624 11.3553 15.5815C11.3553 16.3006 10.7722 16.8823 10.0546 16.8823C9.33694 16.8823 8.75391 16.3006 8.75391 15.5815Z" fill="#373765"/>
<path d="M14.448 16.2068C14.7935 16.2068 15.0736 15.9268 15.0736 15.5814C15.0736 15.236 14.7935 14.9561 14.448 14.9561C14.1024 14.9561 13.8223 15.236 13.8223 15.5814C13.8223 15.9268 14.1024 16.2068 14.448 16.2068Z" fill="#373765"/>
<path fill-rule="evenodd" clip-rule="evenodd" d="M14.4479 15.6316C14.4744 15.6316 14.4972 15.6099 14.4972 15.5815C14.4972 15.5532 14.4744 15.5315 14.4479 15.5315C14.4214 15.5315 14.3986 15.5532 14.3986 15.5815C14.3986 15.6099 14.4214 15.6316 14.4479 15.6316ZM13.1472 15.5815C13.1472 14.8624 13.7303 14.2808 14.4479 14.2808C15.1656 14.2808 15.7486 14.8624 15.7486 15.5815C15.7486 16.3006 15.1656 16.8823 14.4479 16.8823C13.7303 16.8823 13.1472 16.3006 13.1472 15.5815Z" fill="#373765"/>
<path d="M18.8413 16.2068C19.1868 16.2068 19.467 15.9268 19.467 15.5814C19.467 15.236 19.1868 14.9561 18.8413 14.9561C18.4957 14.9561 18.2156 15.236 18.2156 15.5814C18.2156 15.9268 18.4957 16.2068 18.8413 16.2068Z" fill="#373765"/>
<path fill-rule="evenodd" clip-rule="evenodd" d="M18.8412 15.6316C18.8678 15.6316 18.8905 15.6099 18.8905 15.5815C18.8905 15.5532 18.8677 15.5315 18.8412 15.5315C18.8147 15.5315 18.7919 15.5532 18.7919 15.5815C18.7919 15.6099 18.8147 15.6316 18.8412 15.6316ZM17.5405 15.5815C17.5405 14.8624 18.1236 14.2808 18.8412 14.2808C19.5589 14.2808 20.1419 14.8624 20.1419 15.5815C20.1419 16.3006 19.5589 16.8823 18.8412 16.8823C18.1236 16.8823 17.5405 16.3006 17.5405 15.5815Z" fill="#373765"/>
<path fill-rule="evenodd" clip-rule="evenodd" d="M6.31311 18.8077C6.31311 18.4347 6.61532 18.1323 6.98811 18.1323H41.0159C41.3887 18.1323 41.6909 18.4347 41.6909 18.8077C41.6909 19.1807 41.3887 19.4831 41.0159 19.4831H6.98811C6.61532 19.4831 6.31311 19.1807 6.31311 18.8077Z" fill="#373765"/>
<path fill-rule="evenodd" clip-rule="evenodd" d="M17.7767 24.0406C17.2637 22.7054 18.5945 21.5256 19.8533 21.921L19.8594 21.923L26.695 24.2137C27.5546 24.4737 27.7504 25.5469 27.1687 26.1317L26.0074 27.2991L30.3412 31.6077C30.8016 32.0705 30.8016 32.7954 30.3412 33.2583L29.1019 34.5042C28.6398 34.9688 27.9132 34.9688 27.4511 34.5042L23.1707 30.2009L21.9916 31.3862L21.9681 31.4059C21.3906 31.8898 20.3196 31.8035 20.0476 30.8898L17.7767 24.0406ZM19.1009 23.291C19.0204 23.372 19.001 23.4662 19.0389 23.5615L19.0463 23.5799L21.2476 30.2193L22.3452 29.1159C22.8074 28.6513 23.5339 28.6513 23.9961 29.1159L28.2765 33.4192L29.2567 32.4337L24.9229 28.1252C24.4626 27.6623 24.4626 26.9374 24.923 26.4746L25.9899 25.4019L19.4442 23.2084C19.3065 23.1669 19.1827 23.2088 19.1009 23.291Z" fill="#373765"/>
</svg>
